<svg id="Capa_1" enable-background="new 0 0 512 512" height="512" viewBox="0 0 512 512" width="512" xmlns="http://www.w3.org/2000/svg"><g><path d="m512 256c0 80.894-37.525 153.031-96.117 199.944-6.916 5.538-17.84 8.6-25.316 13.407-8.188 5.265-12.983 12.201-21.775 16.522-14.601 7.177-29.986 13.004-45.992 17.317-19.39 5.23-41.388-29.389-62.308-28.899-2.06.06-4.13.08-6.2.08-5.07 0-10.11-.15-15.11-.45-5.64-.32-11.22-.83-16.75-1.51-12.37-1.54-24.47-3.96-36.22-7.2-2.12-.58-4.23-1.19-6.33-1.83-5.67-1.72-11.26-3.63-16.75-5.72-4.82-1.84-9.56-3.81-14.23-5.93-2.38-1.08-4.74-2.19-7.08-3.33-21.24-10.4-39.112 13.969-56.552-1.651-52.34-46.87-85.27-114.97-85.27-190.75 0-141.38 114.62-256 256-256s256 114.62 256 256z" fill="#845caf"/><g><path d="m156.454 91.917h-75.499c-30.297 0-54.857 24.56-54.857 54.857l56.31 12.981 74.046-12.981z" fill="#8b5e5e"/><path d="m322.8 468.48v34.71c-21.3 5.75-43.69 8.81-66.8 8.81-5.073 0-10.111-.148-15.111-.439-22.218-1.294-33.945-29.952-54.285-36.557-4.057-1.317-17.799 21.797-21.764 20.286-29.533-11.259-56.445-27.829-79.57-48.54 9.95-45.85 50.76-80.2 99.6-80.2h35.99c56.3 0 101.94 45.64 101.94 101.93z" fill="#6b696f"/><path d="m236.7 367.78c-48.77 7.6-86.09 49.8-86.09 100.7v20.88c-23.98-10.84-45.98-25.27-65.34-42.61 9.95-45.86 50.77-80.2 99.6-80.2h35.99c5.39 0 10.68.42 15.84 1.23z" fill="#545058"/><g fill="#423f46"><path d="m281.49 383.25v21.89c0 14.61-7.72 27.4-19.29 34.56v72.22c-2.06.06-4.13.08-6.2.08-5.073 0-10.111-.148-15.111-.439-5.633-.328-10.406-11.114-15.937-11.797l7.321-92.593 8.617-64.52c22.42-.001 40.6 18.179 40.6 40.599z"/><path d="m189.043 493.183c-7.849-2.159-16.673 4.974-24.202 2.104-4.816-1.836-9.561-3.813-14.231-5.927-2.38-1.08-4.74-2.19-7.08-3.33v-46.33c-11.57-7.16-19.29-19.95-19.29-34.56v-21.89c0-22.42 18.18-40.6 40.6-40.6l7.392 60.929z"/></g><path d="m240.89 391.38v120.17c-5.64-.32-11.22-.83-16.75-1.51-12.37-1.54-24.47-3.96-36.22-7.2-2.12-.58-4.23-1.19-6.33-1.83-5.67-1.72-11.26-3.63-16.75-5.72v-103.91z" fill="#faf7eb"/><path d="m205.231 406.381h-4.728c-10.444 0-18.911 8.467-18.911 18.911 0 10.444 8.467 18.911 18.911 18.911h4.728c10.444 0 18.911-8.467 18.911-18.911 0-10.445-8.467-18.911-18.911-18.911z" fill="#9d6b6b"/><path d="m224.14 462.85v47.19c-12.37-1.54-24.47-3.96-36.22-7.2-2.12-.58-4.23-1.19-6.33-1.83v-38.16c0-11.74 9.53-21.27 21.28-21.27s21.27 9.53 21.27 21.27z" fill="#9d6b6b"/><path d="m240.892 374.581v53.919c-6.681-.117-13.325-2.737-18.43-7.842l-19.601-19.601-19.601 19.601c-5.105 5.105-11.732 7.716-18.422 7.842v-53.919z" fill="#d9d3c8"/><circle cx="81.363" cy="246.856" fill="#ebb99a" r="44.749"/><path d="m61.401 246.853c0 5.732 2.412 10.902 6.285 14.536.529-4.881 4.666-8.68 9.688-8.68 5.377 0 9.737 4.361 9.737 9.746 0 1.321-.264 2.585-.743 3.741 8.606-2.23 14.957-10.043 14.957-19.343 0-11.026-8.936-19.962-19.962-19.962s-19.962 8.936-19.962 19.962z" fill="#dc9e80"/><path d="m164.844 324.012v57.039c0 21.001 17.018 38.02 38.019 38.02s38.029-17.018 38.029-38.02v-57.039z" fill="#f0cfba"/><path d="m214.679 417.193c-3.719 1.219-7.693 1.877-11.816 1.877-21.001 0-38.019-17.018-38.019-38.019v-57.037h23.624v57.037c-.001 16.878 10.991 31.185 26.211 36.142z" fill="#ebb99a"/><path d="m164.844 324.012v50.569c10.729 2.773 21.992 4.25 33.589 4.25h42.46v-54.819z" fill="#ebb99a"/><path d="m397.53 238.72c0 32.66-13.24 62.22-34.64 83.62s-50.97 34.63-83.62 34.63h-78.33c-65.31 0-118.25-52.94-118.25-118.25 0-32.66 13.23-62.22 34.63-83.62s50.96-34.64 83.62-34.64h78.33c36.02 0 68.28 16.1 89.96 41.51 13.45 15.74 22.84 35.05 26.53 56.31 1.17 6.64 1.77 13.47 1.77 20.44z" fill="#f0cfba"/><path d="m395.76 218.28h-265.91v-56.31h239.38c13.45 15.74 22.84 35.05 26.53 56.31z" fill="#ebb99a"/><path d="m194.089 322.336c21.404 21.395 50.965 34.634 83.627 34.634h-76.776c-32.654 0-62.215-13.238-83.618-34.634-21.395-21.404-34.634-50.965-34.634-83.618 0-65.307 52.945-118.252 118.252-118.252h76.776c-65.316 0-118.261 52.945-118.261 118.252 0 32.653 13.239 62.214 34.634 83.618z" fill="#ebb99a"/><path d="m374.83 214.05c0 1.43-.07 2.84-.2 4.23-.76 8.31-3.77 15.97-8.42 22.37-3.78-5.2-8.63-9.56-14.23-12.77-3.24-1.85-5.09-6.41-7.62-9.6-1.36-1.72-2.92-3.05-5.01-3.32-4.89-3.47-16.01-2.23-18.54-2.23-3.51 0-5.25 2.47-6.65 5.55-1.16 2.51-2.07 5.44-3.54 7.76-7.13 3.27-13.26 8.34-17.81 14.61-4.65-6.4-7.67-14.06-8.43-22.37-.13-1.39-.2-2.8-.2-4.23 0-25.04 20.29-45.33 45.32-45.33 25.04 0 45.33 20.29 45.33 45.33z" fill="#faf7eb"/><path d="m374.83 214.05c0 1.43-.07 2.84-.2 4.23h-90.25c-.13-1.39-.2-2.8-.2-4.23 0-25.04 20.29-45.33 45.32-45.33 25.04 0 45.33 20.29 45.33 45.33z" fill="#ebe6db"/><path d="m352.34 224.05c0 1.31-.12 2.59-.36 3.83-6.62-3.79-14.3-5.95-22.47-5.95-6.63 0-12.92 1.42-18.6 3.98-.06-.61-.09-1.23-.09-1.86 0-2 .28-3.94.82-5.77 2.49-8.67 10.47-15 19.94-15s17.45 6.33 19.94 15c.54 1.83.82 3.77.82 5.77z" fill="#545058"/><path d="m250.45 214.04c0 1.43-.07 2.84-.21 4.24-.76 8.38-3.82 16.1-8.54 22.53-2.06-2.81-4.44-5.38-7.08-7.64-5.15-4.42-8.1-10.9-12.63-14.89-2.44-2.17-5.34-3.6-9.29-3.6-1.7 0-4.98 1.69-8.36 3.6-3.98 2.25-8.11 4.81-9.97 5.26-10.53 2.56-19.61 8.79-25.82 17.27-4.72-6.43-7.78-14.15-8.54-22.53-.14-1.4-.21-2.81-.21-4.24 0-25.02 20.29-45.32 45.32-45.32 25.04 0 45.33 20.3 45.33 45.32z" fill="#faf7eb"/><path d="m250.45 214.04c0 1.43-.07 2.84-.21 4.24h-90.23c-.14-1.4-.21-2.81-.21-4.24 0-25.02 20.29-45.32 45.32-45.32 25.04 0 45.33 20.3 45.33 45.32z" fill="#ebe6db"/><path d="m235.89 224.04c0 3.08-.67 6-1.88 8.62-7.84-6.5-17.91-10.4-28.89-10.4-3.7 0-7.31.44-10.75 1.29.04-1.83.32-3.59.81-5.27 2.5-8.66 10.48-14.99 19.94-14.99 9.47 0 17.46 6.33 19.96 14.99.53 1.83.81 3.76.81 5.76z" fill="#545058"/><path d="m310.092 248.948c-11.6 11.6-30.407 11.6-42.007 0l-5.152-5.152 21.004-21.004c7.223-7.223 18.933-7.223 26.155 0 7.223 7.224 7.223 18.934 0 26.156z" fill="#ebb99a"/><path d="m299.407 4.398c-28.825 0-53.613 17.219-64.686 41.924-11.073-24.705-35.86-41.924-64.686-41.924-39.14 0-70.87 31.729-70.87 70.87v83.429h271.111v-83.43c.001-39.14-31.729-70.869-70.869-70.869z" fill="#9d6b6b"/><path d="m203.936 13.037c-5.97 3.26-11.41 7.35-16.18 12.12-12.83 12.82-20.76 30.54-20.76 50.11v83.43h-67.83v-83.43c0-19.57 7.93-37.29 20.76-50.11 12.82-12.83 30.54-20.76 50.11-20.76 12.28 0 23.83 3.13 33.9 8.64z" fill="#8b5e5e"/><path d="m99.166 115.515h271.111v37.91h-271.111z" fill="#545058"/><path d="m99.166 115.515h67.83v37.91h-67.83z" fill="#423f46"/><path d="m447.76 146.774h-421.662c0 29.385 23.821 53.207 53.207 53.207h315.249c29.385-.001 53.206-23.822 53.206-53.207z" fill="#9d6b6b"/><path d="m199.018 199.984h-119.72c-14.69 0-27.99-5.96-37.62-15.59-9.62-9.63-15.58-22.93-15.58-37.62h52.32 67.39c0 14.69 5.95 27.99 15.58 37.62s22.93 15.59 37.63 15.59z" fill="#8b5e5e"/><path d="m323.369 285.214c-1.919 0-3.839-.732-5.303-2.197-6.541-6.541-17.184-6.541-23.725 0-2.929 2.928-7.678 2.929-10.606 0-2.929-2.929-2.929-7.678 0-10.607 12.39-12.389 32.548-12.389 44.938 0 2.929 2.929 2.929 7.678 0 10.607-1.465 1.464-3.385 2.197-5.304 2.197z" fill="#ebb99a"/><path d="m381.312 374.952c-6.918 0-12.526 5.608-12.526 12.526v41.537h25.051v-41.537c0-6.918-5.608-12.526-12.525-12.526z" fill="#ebb99a"/><path d="m408.026 459.042-39.24 16.184v-67.557h39.24z" fill="#f0cfba"/><path d="m390.567 469.351-21.781 5.875v-67.557h21.781z" fill="#ebb99a"/><path d="m410.089 451.505h-9.891c-3.513 0-6.361-2.848-6.361-6.361v-99.609h22.613v99.609c0 3.513-2.848 6.361-6.361 6.361z" fill="#f5dd62"/><path d="m408.177 451.504h-7.98c-3.52 0-6.36-2.84-6.36-6.36v-99.61h7.98v99.61c0 3.52 2.84 6.36 6.36 6.36z" fill="#eebe61"/><path d="m415.06 443.302h-20.054c-14.481 0-26.22-11.739-26.22-26.22v-9.412c0-14.481 11.739-26.22 26.22-26.22h20.054c14.481 0 26.22 11.739 26.22 26.22v9.412c0 14.481-11.739 26.22-26.22 26.22z" fill="#f0cfba"/><path d="m416.556 443.259c-.5.03-1 .04-1.5.04h-20.05c-14.48 0-26.22-11.74-26.22-26.22v-9.41c0-14.48 11.74-26.22 26.22-26.22h20.05c.5 0 1 .01 1.5.04-13.79.77-24.73 12.2-24.73 26.18v9.41c0 13.98 10.94 25.41 24.73 26.18z" fill="#ebb99a"/><path d="m415.88 455.94c-14.49 11.61-30.27 21.67-47.09 29.93v-29.93z" fill="#545058"/><g><path d="m417.667 365.349h-16.627c-29.225 0-52.916-23.691-52.916-52.916v-41.318c0-29.225 23.691-52.916 52.916-52.916h16.627z" fill="#eebe61"/><path d="m417.667 365.349c-29.225 0-52.916-23.691-52.916-52.916v-41.318c0-29.225 23.691-52.916 52.916-52.916 29.225 0 52.916 23.691 52.916 52.916v41.318c0 29.224-23.691 52.916-52.916 52.916z" fill="#f5dd62"/><path d="m417.668 345.349c-18.15 0-32.916-14.766-32.916-32.916v-41.318c0-18.15 14.766-32.916 32.916-32.916 18.149 0 32.915 14.766 32.915 32.916v41.318c0 18.15-14.766 32.916-32.915 32.916z" fill="#80b4fb"/><path d="m450.583 271.113v41.32c0 18.14-14.77 32.91-32.91 32.91-1.93 0-3.82-.17-5.65-.48 15.46-2.7 27.25-16.22 27.25-32.43v-41.32c0-16.22-11.79-29.74-27.25-32.44 1.83-.31 3.72-.48 5.65-.48 18.14 0 32.91 14.77 32.91 32.92z" fill="#61a2f9"/></g><path d="m351.52 218.28h-39.88c2.49-8.67 10.47-15 19.94-15s17.45 6.33 19.94 15z" fill="#423f46"/><path d="m235.08 218.28h-39.9c2.5-8.66 10.48-14.99 19.94-14.99 9.47 0 17.46 6.33 19.96 14.99z" fill="#423f46"/><path d="m400.096 310.951c-4.285 0-7.759-3.474-7.759-7.759v-35.028c0-4.285 3.474-7.759 7.759-7.759 4.285 0 7.759 3.474 7.759 7.759v35.028c0 4.285-3.474 7.759-7.759 7.759z" fill="#a2d3fc"/></g></g></svg>