<svg id="Capa_1" enable-background="new 0 0 512 512" height="512" viewBox="0 0 512 512" width="512" xmlns="http://www.w3.org/2000/svg"><g><g><g><path d="m499.844 449.054-45.878-128.746c-6.672-18.723-24.345-31.219-44.156-31.219h-153.81-153.81c-19.81 0-37.484 12.495-44.156 31.219l-45.878 128.746c-10.925 30.659 11.717 62.925 44.156 62.925h199.688 199.688c32.439 0 55.081-32.266 44.156-62.925z" fill="#425796"/><path d="m499.844 449.054-45.878-128.746c-6.672-18.723-24.345-31.219-44.156-31.219h-153.81v222.889h199.688c32.439.001 55.081-32.265 44.156-62.924z" fill="#283758"/></g><g><g><g><path d="m256 0c-82.766 0-149.861 73.398-149.861 163.939 0 16.271 2.167 35.104 6.202 55.053h287.317c4.035-19.948 6.203-38.781 6.203-55.053 0-90.541-67.095-163.939-149.861-163.939z" fill="#425796"/><path d="m256 0v218.992h143.658c4.035-19.948 6.202-38.781 6.202-55.053.001-90.541-67.094-163.939-149.86-163.939z" fill="#283758"/></g><g><path d="m400.72 221.391c0 48.393-85.319 107.128-124.938 131.794-11.983 7.461-27.582 7.461-39.565 0-39.619-24.666-124.938-83.402-124.938-131.794 0-63.026 64.794-114.119 144.72-114.119s144.721 51.093 144.721 114.119z" fill="#283758"/><path d="m256 107.273v251.508c6.895 0 13.791-1.865 19.782-5.595 39.619-24.666 124.938-83.402 124.938-131.794 0-63.027-64.793-114.119-144.72-114.119z" fill="#182135"/></g></g><g><path d="m339.031 157.684c-.112-11.993-12.284-20.124-23.464-15.782l-53.331 20.711c-2.006.779-4.121 1.168-6.236 1.168s-4.231-.389-6.236-1.168l-53.331-20.711c-11.18-4.342-23.352 3.789-23.464 15.782-.001.087-.001.173-.001.258v15.068s.031 43.527.061 44.303c.63 16.204 5.892 31.89 14.667 45.527l3.991 6.202c15.293 23.768 39.833 35.568 64.313 35.413 24.48.156 49.02-11.645 64.314-35.413l3.991-6.202c8.775-13.637 14.036-29.323 14.667-45.527.03-.776.061-44.303.061-44.303v-15.068c0-.086-.001-.172-.002-.258z" fill="#f5dfbb"/><path d="m339.031 157.684c-.112-11.993-12.284-20.124-23.464-15.782l-53.331 20.711c-2.006.779-4.121 1.168-6.236 1.168v140.674c24.48.156 49.02-11.645 64.314-35.413l3.991-6.202c8.775-13.637 14.036-29.323 14.667-45.527.03-.776.061-44.303.061-44.303v-15.068c0-.086-.001-.172-.002-.258z" fill="#edbdab"/></g></g></g><g><g><path d="m392.069 512h-272.138c-8.284 0-15-6.716-15-15v-192.91c0-8.284 6.716-15 15-15h272.139c8.284 0 15 6.716 15 15v192.91c-.001 8.284-6.716 15-15.001 15z" fill="#fbf4f4"/><path d="m392.069 289.089h-136.069v222.911h136.069c8.284 0 15-7.466 15-16.675v-189.561c0-9.209-6.715-16.675-15-16.675z" fill="#e2e9ee"/></g><g><path d="m255.995 419.908c-7.69 0-14.674-4.977-17.286-12.207-2.609-7.223-.28-15.578 5.643-20.439 5.949-4.882 14.48-5.482 21.072-1.547 6.581 3.928 10.09 11.849 8.581 19.379-1.702 8.495-9.36 14.814-18.01 14.814z" fill="#425796"/><path d="m265.424 385.716c-2.895-1.728-6.164-2.58-9.424-2.581v36.773c8.648-.003 16.303-6.321 18.004-14.813 1.509-7.53-2-15.451-8.58-19.379z" fill="#283758"/></g></g></g></svg>